# xmcd
#
# Track frame offsets:
#	150
#	19407
#	39610
#	61220
#	77605
#	97015
#	112880
#	131075
#	156095
#	177992
#	195262
#	214987
#
# Disc length: 3078 seconds
#
# Revision: 8
# Processed by: cddbd v1.5.2PL0 Copyright (c) Steve Scherf et al.
# Submitted via: audiograbber 1.83.01
#
DISCID=9f0c040c
DTITLE=Gary Barlow - Open Road
DYEAR=1997
DGENRE=Indie - Alternative
TTITLE0=Love Won´t Wait
TTITLE1=So Help Me Girl
TTITLE2=My Commitment
TTITLE3=Hang On In There Baby
TTITLE4=Are You Ready Now
TTITLE5=Everything I Ever Wanted
TTITLE6=I Fall So Deep
TTITLE7=Lay Down For Love
TTITLE8=Forever Love
TTITLE9=Never Knew
TTITLE10=Open Road
TTITLE11=Always
EXTD=W
EXTT0=
EXTT1=
EXTT2=
EXTT3=
EXTT4=
EXTT5=
EXTT6=
EXTT7=
EXTT8=
EXTT9=
EXTT10=
EXTT11=
PLAYORDER=
